<?xml version="1.0" encoding="UTF-8"?>
<svg width="1024" height="1024" viewBox="0 0 1024 1024" xmlns="http://www.w3.org/2000/svg">
  <path id="1" d="M 0,512 C 0,512 0,0 0,0 C 0,0 512,0 512,0 C 512,0 1024,0 1024,0 C 1024,0 1024,512 1024,512 C 1024,512 1024,1024 1024,1024 C 1024,1024 512,1024 512,1024 C 512,1024 0,1024 0,1024 C 0,1024 0,512 0,512M 559.500,940.923 C 583.343,939.455 588.721,939.001 593.869,938.025 C 596.680,937.492 599.614,937.299 600.389,937.596 C 601.164,937.893 602.095,937.655 602.458,937.068 C 602.821,936.480 605.090,936 607.500,936 C 609.910,936 612.160,935.550 612.500,935 C 612.840,934.450 614.640,934 616.500,934 C 618.360,934 620.148,933.570 624.693,931.354 C 625.083,930.334 626.211,928.825 627.200,928 C 628.601,926.831 628.857,925.664 624.424,918.216 C 623.340,916.745 605.197,912.779 599.029,912.482 C 598.447,912.842 595.614,912.648 592.735,912.049 C 580.252,909.454 499.716,907.956 460.309,909.586 C 435.856,910.597 407.324,914.972 400.500,918.756 C 398.850,919.671 396.188,920.438 392.089,922.804 C 392.876,922.542 394.157,923.831 395.196,925.929 C 396.168,927.893 398.209,930.029 399.732,930.676 C 404.437,932.675 416.237,935.803 421.749,936.512 C 424.636,936.884 427.208,937.528 427.465,937.944 C 427.722,938.360 431.210,938.770 435.216,938.856 C 439.222,938.942 449.700,939.633 458.500,940.390 C 476.237,941.917 538.067,942.243 559.500,940.923M 649.540,856.485 C 670.905,851.054 687.756,834.235 691.903,814.201 C 692.679,810.453 693,746.993 693,597.451 C 693,413.790 693.190,386 694.444,386 C 695.238,386 697.026,384.987 698.417,383.750 C 698.417,383.750 700.945,381.500 700.945,381.500 C 700.945,381.500 701.133,348.819 701.133,348.819 C 701.298,320.045 701.125,315.839 699.685,313.641 C 698.786,312.268 697.026,311.001 695.775,310.823 C 695.775,310.823 693.500,310.500 693.500,310.500 C 693.500,310.500 693,261 693,261 C 692.528,214.262 692.386,211.186 690.447,205.873 C 687.294,197.232 682.105,189.364 675.460,183.149 C 667.952,176.127 661.379,172.526 651.415,169.978 C 643.901,168.056 639.922,168 512,168 C 384.078,168 380.099,168.056 372.585,169.978 C 368.331,171.066 362.535,173.203 359.705,174.728 C 352.209,178.766 341.844,188.939 338.134,195.900 C 331.778,207.826 331.666,208.450 331.060,235.473 C 330.516,259.729 330.439,260.476 328.357,261.512 C 323.100,264.128 323,264.441 323,278.294 C 323,292.140 323.883,295 328.155,295 C 329.784,295 330,295.877 330,302.500 C 330,308.290 329.678,310 328.589,310 C 327.813,310 325.986,311.416 324.529,313.148 C 324.529,313.148 321.879,316.297 321.879,316.297 C 321.879,316.297 322.190,334.570 322.190,334.570 C 322.492,352.330 322.568,352.917 324.924,355.422 C 326.257,356.840 327.945,358 328.674,358 C 329.546,358 329.986,359.283 329.961,361.750 C 329.929,364.865 329.379,365.842 326.711,367.520 C 326.711,367.520 323.500,369.539 323.500,369.539 C 323.500,369.539 323.229,389.296 323.229,389.296 C 323.062,401.468 323.353,409.790 323.987,410.975 C 324.553,412.033 326.250,413.490 327.758,414.213 C 327.758,414.213 330.500,415.527 330.500,415.527 C 330.500,415.527 331,615.513 331,615.513 C 331,615.513 331.500,815.500 331.500,815.500 C 331.500,815.500 333.783,821.146 333.783,821.146 C 340.956,838.885 354.862,851.173 373.202,855.978 C 380.205,857.813 385.826,857.892 512.040,857.945 C 626.380,857.993 644.359,857.802 649.540,856.485" stroke="#FFFFFF" fill="#FFFFFF" stroke-width="1" />
  <path id="28" d="M 373.202,855.978 C 354.862,851.173 340.956,838.885 333.783,821.146 C 333.783,821.146 331.500,815.500 331.500,815.500 C 331.500,815.500 331,615.513 331,615.513 C 331,615.513 330.500,415.527 330.500,415.527 C 330.500,415.527 327.758,414.213 327.758,414.213 C 326.250,413.490 324.553,412.033 323.987,410.975 C 323.353,409.790 323.062,401.468 323.229,389.296 C 323.229,389.296 323.500,369.539 323.500,369.539 C 323.500,369.539 326.711,367.520 326.711,367.520 C 329.379,365.842 329.929,364.865 329.961,361.750 C 329.986,359.283 329.546,358 328.674,358 C 327.945,358 326.370,356.959 325.174,355.686 C 323.095,353.473 323,352.516 323,333.860 C 323,314.758 323.048,314.303 325.314,312.174 C 326.587,310.978 328.162,310 328.814,310 C 329.623,310 330,307.616 330,302.500 C 330,295.877 329.784,295 328.155,295 C 323.883,295 323,292.140 323,278.294 C 323,264.441 323.100,264.128 328.357,261.512 C 330.439,260.476 330.516,259.729 331.060,235.473 C 331.666,208.450 331.778,207.826 338.134,195.900 C 341.844,188.939 352.209,178.766 359.705,174.728 C 362.535,173.203 368.331,171.066 372.585,169.978 C 380.099,168.056 384.078,168 512,168 C 639.922,168 643.901,168.056 651.415,169.978 C 661.379,172.526 667.952,176.127 675.460,183.149 C 682.105,189.364 687.294,197.232 690.447,205.873 C 692.386,211.186 692.528,214.262 693,261 C 693,261 693.500,310.500 693.500,310.500 C 693.500,310.500 695.775,310.823 695.775,310.823 C 697.026,311.001 698.786,312.268 699.685,313.641 C 701.125,315.839 701.298,320.045 701.133,348.819 C 701.133,348.819 700.945,381.500 700.945,381.500 C 700.945,381.500 698.417,383.750 698.417,383.750 C 697.026,384.987 695.238,386 694.444,386 C 693.190,386 693,413.790 693,597.451 C 693,746.993 692.679,810.453 691.903,814.201 C 688.738,829.492 677.085,844.429 662.926,851.343 C 648.443,858.416 657.816,858.006 512.040,857.945 C 385.826,857.892 380.205,857.813 373.202,855.978M 654.015,850.959 C 671.605,844.100 683.526,830.789 687.526,813.543 C 688.928,807.499 689.094,776.010 689.109,512.646 C 689.122,292.550 688.833,217.115 687.961,213 C 683.948,194.053 667.338,177.510 648.270,173.469 C 638.175,171.330 385.825,171.330 375.730,173.469 C 357.533,177.325 341.769,192.044 336.855,209.766 C 335.067,216.214 335,227.218 335,512.518 C 335,837.004 334.565,813.422 340.782,826 C 344.594,833.713 354.917,843.739 363.250,847.820 C 376.145,854.136 369.637,853.884 515,853.683 C 515,853.683 647.500,853.500 647.500,853.500 C 647.500,853.500 654.015,850.959 654.015,850.959M 330.772,390.990 C 331.043,371.738 330.508,368.092 327.808,370.792 C 326.952,371.648 326.684,377.252 326.859,390.671 C 326.993,400.949 327.346,409.751 327.643,410.232 C 327.940,410.713 328.705,410.932 329.342,410.720 C 330.154,410.450 330.581,404.548 330.772,390.990M 695.737,381.184 C 696.672,380.590 697.008,372.690 697.113,348.807 C 697.189,331.432 696.944,316.718 696.567,316.108 C 696.190,315.498 695.234,315 694.441,315 C 693.215,315 693,319.999 693,348.500 C 693,366.925 693.338,381.993 693.750,381.985 C 694.162,381.977 695.057,381.616 695.737,381.184M 330.303,352.652 C 330.587,351.911 330.859,342.878 330.907,332.579 C 330.987,315.272 330.862,313.880 329.247,314.190 C 327.672,314.493 327.474,316.340 327.227,332.981 C 327.077,343.131 327.174,352.013 327.445,352.718 C 328.088,354.394 329.648,354.358 330.303,352.652M 330.500,277.917 C 330.500,267.547 330.253,265.500 329,265.500 C 327.771,265.500 327.448,267.564 327.215,276.939 C 326.913,289.098 327.255,291.415 329.251,290.750 C 330.161,290.447 330.500,286.959 330.500,277.917" stroke="#52575D" fill="#52575D" stroke-width="1" />
  <path id="4" d="M 458.500,940.390 C 449.700,939.633 439.222,938.942 435.216,938.856 C 431.210,938.770 427.722,938.360 427.465,937.944 C 427.208,937.528 424.636,936.884 421.749,936.512 C 416.237,935.803 404.437,932.675 399.732,930.676 C 398.209,930.029 396.168,927.893 395.196,925.929 C 394.157,923.831 392.876,922.542 394.584,920.460 C 396.188,920.438 398.850,919.671 400.500,918.756 C 407.324,914.972 435.856,910.597 460.309,909.586 C 499.716,907.956 580.252,909.454 592.735,912.049 C 595.614,912.648 598.447,912.842 603.706,913.688 C 605.197,912.779 623.340,916.745 628.362,922.712 C 628.857,925.664 628.601,926.831 627.200,928 C 626.211,928.825 625.083,930.334 620.473,933.044 C 620.148,933.570 618.360,934 616.500,934 C 614.640,934 612.840,934.450 612.500,935 C 612.160,935.550 609.910,936 607.500,936 C 605.090,936 602.821,936.480 602.458,937.068 C 602.095,937.655 601.164,937.893 600.389,937.596 C 599.614,937.299 596.680,937.492 593.869,938.025 C 588.721,939.001 583.343,939.455 559.500,940.923 C 538.067,942.243 476.237,941.917 458.500,940.390" stroke="#E7E7E7" fill="#E7E7E7" stroke-width="1" />
  <path id="4" d="M 376.250,852.496 C 356.849,848.243 341.399,833.477 336.532,814.540 C 335.173,809.253 335,775.143 335,512.518 C 335,227.218 335.067,216.214 336.855,209.766 C 341.769,192.044 357.533,177.325 375.730,173.469 C 385.825,171.330 638.175,171.330 648.270,173.469 C 667.418,177.526 684.124,194.230 687.956,213.149 C 688.806,217.343 688.987,295.238 688.662,515.649 C 688.265,784.413 688.072,812.973 686.621,817.500 C 681.729,832.766 670.120,844.679 654.015,850.959 C 654.015,850.959 647.500,853.500 647.500,853.500 C 647.500,853.500 515,853.683 515,853.683 C 405.996,853.834 381.391,853.623 376.250,852.496M 646.748,844.174 C 662.379,839.263 674.408,826.670 679.872,809.500 C 681.308,804.985 681.491,776.731 681.744,518.500 C 681.933,326.133 681.686,229.717 680.991,224 C 678.541,203.849 664.566,186.940 645.922,181.566 C 641.431,180.272 636.270,180.011 619.422,180.229 C 619.422,180.229 598.500,180.500 598.500,180.500 C 598.500,180.500 597.916,186.500 597.916,186.500 C 597.167,194.201 594.968,198.331 589.795,201.754 C 589.795,201.754 585.646,204.500 585.646,204.500 C 585.646,204.500 511.909,204.500 511.909,204.500 C 511.909,204.500 438.172,204.500 438.172,204.500 C 438.172,204.500 433.925,201.500 433.925,201.500 C 428.849,197.914 426.331,193.405 425.261,185.989 C 425.261,185.989 424.469,180.500 424.469,180.500 C 424.469,180.500 401.984,180.515 401.984,180.515 C 380.856,180.529 379.154,180.668 373.757,182.834 C 357.629,189.306 345.844,204.274 342.919,222 C 341.629,229.816 341.747,794.455 343.040,803.500 C 345.499,820.701 357.638,836.207 374.136,843.220 C 379.481,845.492 379.726,845.502 443,846.047 C 477.925,846.348 536.650,846.490 573.500,846.365 C 636.934,846.149 640.832,846.033 646.748,844.174M 560.414,192.780 C 561.166,190.629 560.980,189.636 559.527,188.030 C 557.298,185.567 555.262,185.454 552.829,187.655 C 550.566,189.703 550.487,192.344 552.626,194.483 C 555.092,196.949 559.276,196.034 560.414,192.780M 539.863,192.438 C 540.960,192.066 540.982,191.683 539.977,190.472 C 538.912,189.189 534.754,189.007 511.628,189.234 C 487.263,189.473 484.494,189.669 484.206,191.166 C 484.023,192.119 484.625,192.975 485.613,193.166 C 488.139,193.655 538.257,192.982 539.863,192.438" stroke="#E7E7E7" fill="#E7E7E7" stroke-width="1" />
  <path id="28" d="M 443,846.047 C 379.726,845.502 379.481,845.492 374.136,843.220 C 357.638,836.207 345.499,820.701 343.040,803.500 C 341.747,794.455 341.629,229.816 342.919,222 C 345.844,204.274 357.629,189.306 373.757,182.834 C 379.154,180.668 380.856,180.529 401.984,180.515 C 401.984,180.515 424.469,180.500 424.469,180.500 C 424.469,180.500 425.261,185.989 425.261,185.989 C 426.331,193.405 428.849,197.914 433.925,201.500 C 433.925,201.500 438.172,204.500 438.172,204.500 C 438.172,204.500 511.909,204.500 511.909,204.500 C 511.909,204.500 585.646,204.500 585.646,204.500 C 585.646,204.500 589.795,201.754 589.795,201.754 C 594.968,198.331 597.167,194.201 597.916,186.500 C 597.916,186.500 598.500,180.500 598.500,180.500 C 598.500,180.500 619.422,180.229 619.422,180.229 C 636.270,180.011 641.431,180.272 645.922,181.566 C 664.566,186.940 678.541,203.849 680.991,224 C 681.686,229.717 681.933,326.133 681.744,518.500 C 681.491,776.731 681.308,804.985 679.872,809.500 C 677.077,818.285 673.801,824.101 668.303,830.039 C 661.711,837.159 654.938,841.601 646.748,844.174 C 640.832,846.033 636.934,846.149 573.500,846.365 C 536.650,846.490 477.925,846.348 443,846.047M 650.259,838.299 C 657.864,834.697 666.925,826.690 670.712,820.228 C 673.844,814.883 677,804.938 677,800.411 C 677,800.411 677,797 677,797 C 677,797 629.250,796.837 629.250,796.837 C 553.966,796.579 544.927,796.823 542.358,799.180 C 540.778,800.630 540.102,800.805 539.783,799.849 C 539.304,798.413 540.080,796.816 544.759,789.605 C 549.373,782.494 551.451,775.596 551.418,767.500 C 551.380,758.311 549.840,753.355 544.673,745.805 C 540.065,739.071 530.843,731.929 524.258,729.994 C 500.770,723.092 477.686,737.172 472.853,761.349 C 470.730,771.969 474.890,785.586 482.919,794.296 C 486.507,798.189 486.825,798.901 485.479,800.018 C 484.198,801.081 483.515,800.893 481.389,798.897 C 481.389,798.897 478.836,796.500 478.836,796.500 C 478.836,796.500 414.168,796.494 414.168,796.494 C 378.600,796.491 348.938,796.651 348.250,796.851 C 345.292,797.710 348.317,811.746 353.288,820.228 C 356.519,825.741 365.388,834.132 371.073,837.054 C 380.863,842.086 374.961,841.894 513.500,841.691 C 513.500,841.691 643.500,841.500 643.500,841.500 C 643.500,841.500 650.259,838.299 650.259,838.299M 472.984,786.750 C 468.727,777.611 467.516,768.196 469.421,759.058 C 470.257,755.047 472.305,749.350 473.971,746.398 C 475.637,743.446 477,740.798 477,740.515 C 477,739.485 347.134,739.974 346.496,741.006 C 346.154,741.559 346.195,753.484 346.587,767.506 C 346.587,767.506 347.301,793 347.301,793 C 347.301,793 411.598,793 411.598,793 C 411.598,793 475.895,793 475.895,793 C 475.895,793 472.984,786.750 472.984,786.750M 677,766.500 C 677,766.500 677,740 677,740 C 677,740 612,740 612,740 C 565.551,740 547,740.313 547,741.096 C 547,741.699 547.849,743.386 548.886,744.846 C 556.410,755.437 557.483,772.627 551.448,785.871 C 550.102,788.825 549,791.637 549,792.121 C 549,792.617 576.865,793 613,793 C 613,793 677,793 677,793 C 677,793 677,766.500 677,766.500M 486.457,732.585 C 493.937,726.875 501.051,724.671 512,724.671 C 522.949,724.671 530.063,726.875 537.543,732.585 C 537.543,732.585 542.017,736 542.017,736 C 542.017,736 609.482,736 609.482,736 C 609.482,736 676.946,736 676.946,736 C 676.946,736 677.223,524.750 677.223,524.750 C 677.375,408.562 677.275,291.875 677,265.445 C 677,265.445 676.500,217.390 676.500,217.390 C 676.500,217.390 672.775,209.856 672.775,209.856 C 667.875,199.945 661.104,193.150 651.302,188.303 C 651.302,188.303 643.611,184.500 643.611,184.500 C 643.611,184.500 623.672,184.158 623.672,184.158 C 602.072,183.787 602.045,183.793 602.015,189.261 C 601.973,196.841 594.310,205.762 585.895,208.028 C 583.427,208.693 556.793,208.954 509.799,208.775 C 509.799,208.775 437.500,208.500 437.500,208.500 C 437.500,208.500 432.762,205.715 432.762,205.715 C 426.794,202.207 423.311,197.123 421.773,189.679 C 421.773,189.679 420.570,183.858 420.570,183.858 C 420.570,183.858 400.535,184.179 400.535,184.179 C 400.535,184.179 380.500,184.500 380.500,184.500 C 380.500,184.500 373.712,187.715 373.712,187.715 C 361.656,193.425 351.291,205.576 348.037,217.811 C 347.192,220.986 346.819,289.679 346.622,478.571 C 346.475,619.618 346.575,735.241 346.844,735.510 C 347.113,735.779 377.629,736 414.658,736 C 414.658,736 481.983,736 481.983,736 C 481.983,736 486.457,732.585 486.457,732.585" stroke="#52575D" fill="#52575D" stroke-width="1" />
  <path id="29" d="M 549,792.121 C 549,791.637 550.102,788.825 551.448,785.871 C 557.483,772.627 556.410,755.437 548.886,744.846 C 547.849,743.386 547,741.699 547,741.096 C 547,740.313 565.551,740 612,740 C 612,740 677,740 677,740 C 677,740 677,766.500 677,766.500 C 677,766.500 677,793 677,793 C 677,793 613,793 613,793 C 576.865,793 549,792.617 549,792.121M 617.070,773 C 620.492,769.150 623.816,766 624.458,766 C 625.100,766 626.919,767.350 628.500,769 C 630.081,770.650 631.937,772 632.624,772 C 633.311,772 636.708,768.833 640.173,764.963 C 645.487,759.028 646.649,758.167 647.597,759.463 C 649.745,762.401 651,761.125 651,756 C 651,756 651,751 651,751 C 651,751 646.559,751 646.559,751 C 641.826,751 639.643,752.661 642.370,754.187 C 643.786,754.979 643.276,755.957 638.788,761.055 C 635.910,764.325 633.065,767 632.465,767 C 631.865,767 630.081,765.650 628.500,764 C 626.919,762.350 625.135,761 624.534,761 C 623.538,761 613.986,770.404 609.614,775.687 C 607.901,777.757 608.093,780 609.983,780 C 610.459,780 613.648,776.850 617.070,773" stroke="#F8F8F8" fill="#F8F8F8" stroke-width="1" />
  <path id="29" d="M 346.844,735.510 C 346.575,735.241 346.475,619.618 346.622,478.571 C 346.819,289.679 347.192,220.986 348.037,217.811 C 351.291,205.576 361.656,193.425 373.712,187.715 C 373.712,187.715 380.500,184.500 380.500,184.500 C 380.500,184.500 400.535,184.179 400.535,184.179 C 400.535,184.179 420.570,183.858 420.570,183.858 C 420.570,183.858 421.773,189.679 421.773,189.679 C 423.311,197.123 426.794,202.207 432.762,205.715 C 432.762,205.715 437.500,208.500 437.500,208.500 C 437.500,208.500 509.799,208.775 509.799,208.775 C 556.793,208.954 583.427,208.693 585.895,208.028 C 594.310,205.762 601.973,196.841 602.015,189.261 C 602.045,183.793 602.072,183.787 623.672,184.158 C 623.672,184.158 643.611,184.500 643.611,184.500 C 643.611,184.500 651.302,188.303 651.302,188.303 C 661.107,193.151 667.875,199.945 672.775,209.859 C 672.775,209.859 676.500,217.396 676.500,217.396 C 676.500,217.396 676.759,476.698 676.759,476.698 C 676.759,476.698 677.019,736 677.019,736 C 677.019,736 609.518,736 609.518,736 C 609.518,736 542.017,736 542.017,736 C 542.017,736 537.543,732.585 537.543,732.585 C 530.063,726.875 522.949,724.671 512,724.671 C 501.051,724.671 493.937,726.875 486.457,732.585 C 486.457,732.585 481.983,736 481.983,736 C 481.983,736 414.658,736 414.658,736 C 377.629,736 347.113,735.779 346.844,735.510M 454,698.849 C 454,694.330 454.502,692.177 456,690.273 C 458.102,687.601 458.772,680.595 457.029,679.518 C 456.101,678.945 455.531,680.510 454.666,686 C 454.372,687.867 454.234,687.614 454.121,685 C 454.038,683.075 453.533,680.825 453,680 C 452.348,678.991 452.025,683.024 452.015,692.309 C 452.005,701.264 452.352,705.901 453,705.500 C 453.550,705.160 454,702.167 454,698.849M 467.522,703.750 C 467.830,702.513 467.951,696.550 467.791,690.500 C 467.515,680.044 467.392,679.485 465.308,679.188 C 463.715,678.961 462.690,679.699 461.558,681.888 C 459.459,685.948 459.598,689.219 462,692.273 C 463.385,694.034 464,696.330 464,699.741 C 464,702.450 464.300,704.966 464.667,705.333 C 465.917,706.583 466.961,706.003 467.522,703.750M 527.429,704.429 C 528.578,703.280 529,700.843 529,695.363 C 529,686.050 528.071,684.194 522.997,683.383 C 520.427,682.972 518.855,682.119 518.477,680.928 C 517.718,678.535 514.023,677.355 512.890,679.143 C 512.196,680.238 512.027,680.245 512.015,679.180 C 511.990,677.021 507.600,678.273 506.513,680.750 C 505.755,682.478 504.699,683 501.963,683 C 500.003,683 497.860,683.540 497.200,684.200 C 495.572,685.828 495.572,703.172 497.200,704.800 C 498.017,705.617 502.785,706 512.129,706 C 523.276,706 526.153,705.705 527.429,704.429M 583.199,696.589 C 582.870,686.847 581.927,684 579.032,684 C 577.988,684 576.846,683.088 576.492,681.973 C 576.138,680.858 574.739,679.219 573.383,678.331 C 570.284,676.300 566.424,677.755 559.599,684.840 C 558.665,686.351 556.841,703.933 557.506,705.009 C 557.919,705.677 562.762,705.957 570.827,705.779 C 570.827,705.779 583.500,705.500 583.500,705.500 C 583.500,705.500 583.199,696.589 583.199,696.589M 453.935,653.443 C 456.259,647.231 456.436,646 455,646 C 456.640,648.836 447.883,648.635 449.025,646 C 447.730,646 447.706,645.781 449.602,651.346 C 450.777,654.794 450.913,656.400 450.111,657.366 C 448.970,658.741 449.693,660.308 451.075,659.454 C 451.513,659.183 452.799,656.478 453.935,653.443M 528,655.500 C 528,654.200 523.951,654 497.559,654 C 469.944,654 464.732,654.399 466.694,656.361 C 467.046,656.713 480.984,657 497.667,657 C 523.963,657 528,656.800 528,655.500M 390.456,655.071 C 390.772,654.560 390.011,653.998 392,649.505 C 392,647.750 389.253,645 387.500,645 C 383.807,645 381.437,652.037 384.200,654.800 C 385.620,656.220 389.638,656.394 390.456,655.071M 400.800,654.800 C 402.817,652.783 402.149,650.948 399,649.850 C 395.735,646.794 403.427,646.794 397.417,645.500 C 393.382,645.500 392.694,649.448 394.667,655.333 C 395.754,656.420 399.507,656.094 400.800,654.800M 407.334,650.250 C 407.114,642.652 407.197,643 405.607,643 C 403.786,643 402.643,646.043 403.967,647.367 C 404.535,647.935 405,649.810 405,651.533 C 405,654.516 405.637,656 406.917,656 C 407.238,656 407.425,653.413 407.334,650.250M 417.458,655.068 C 417.775,654.555 416.823,653.993 415.344,653.818 C 411.116,653.318 411.176,651 415.417,651 C 419.359,651 420.139,649.281 417.429,646.571 C 415.586,644.728 414.562,644.629 411.934,646.035 C 409.717,647.222 409.246,652.846 411.200,654.800 C 412.622,656.222 416.638,656.394 417.458,655.068M 423,651.410 C 423,649.252 423.565,647.720 424.494,647.364 C 426.626,646.546 425.382,645.087 423.068,645.692 C 420.576,646.344 419.971,648.048 420.681,652.422 C 421.393,656.812 423,656.111 423,651.410M 436,649.559 C 436,643.367 434.834,640.383 433.636,643.506 C 433.321,644.328 432.238,645 431.231,645 C 428.534,645 427,646.995 427,650.500 C 427,654.476 428.579,656 432.700,656 C 432.700,656 436,656 436,656 C 436,656 436,649.559 436,649.559M 446,651.107 C 446,645.907 444.575,644.365 440.859,645.545 C 438.034,648.676 445.661,648.658 441.189,649.828 C 436.068,650.554 437.198,656 442.469,656 C 442.469,656 446,656 446,656 C 446,656 446,651.107 446,651.107M 378,652.460 C 378,651.613 378.932,649.094 380.070,646.863 C 380.602,639.516 374.392,650.032 375.029,647 C 375.027,650.505 376.069,654 377.117,654 C 377.603,654 378,653.307 378,652.460M 612.813,646.448 C 613.535,646.210 613.846,645.561 613.504,645.007 C 612.683,643.678 467.359,643.611 466.538,644.939 C 464.845,647.679 471.425,647.897 540.500,647.396 C 579.550,647.113 612.091,646.686 612.813,646.448M 638.418,625.393 C 639.288,625.059 640,623.934 640,622.893 C 640,621.363 639.261,621 636.148,621 C 624.486,621 618.992,606.808 627.400,598.400 C 633.465,592.335 643.103,593.061 647.734,599.933 C 649.624,602.737 650,604.636 650,611.370 C 650,619.257 650.039,619.388 651.701,617.016 C 652.639,615.678 653.590,612.004 653.819,608.832 C 654.173,603.939 653.831,602.387 651.539,598.476 C 647.925,592.309 643.950,590.009 636.900,590.004 C 632.275,590.001 630.587,590.517 627.202,592.969 C 621.620,597.013 621,598.555 621,608.401 C 621,616.778 621.063,616.996 624.414,620.347 C 626.291,622.224 629.554,624.218 631.664,624.777 C 636.681,626.106 636.583,626.097 638.418,625.393M 401.600,618.458 C 403.395,616.105 404.460,613.270 404.773,610.012 C 405.401,603.481 404.594,600.746 400.751,596.369 C 395.087,589.918 388.085,588.416 380.250,591.973 C 376.528,593.662 376,594.302 378.250,598.299 C 383.290,593.709 388.715,592.768 394.094,595.549 C 400.615,598.921 403.317,609.785 399,615.273 C 396.927,617.908 396.288,622 397.949,622 C 398.471,622 400.114,620.406 401.600,618.458M 465.263,614.583 C 466.524,611.187 466.763,609.363 461.446,608.256 C 459.990,606.265 452.325,605.486 450.346,607.128 C 449.045,610.426 447.282,613.193 447,608.559 C 447,604.819 445.480,603.120 443.713,604.887 C 442.659,605.148 435.150,608.933 435.021,607.525 C 432.997,605.087 428.298,605.615 426.413,608.493 C 422.821,613.975 428.316,620.077 433.938,616.850 C 436.211,615.545 436.966,615.502 438.454,616.590 C 439.655,617.468 443.066,617.831 448.870,617.698 C 457.311,617.504 457.503,617.445 457.651,615 C 457.734,613.625 457.865,611.825 457.941,611 C 458.017,610.175 458.744,611.033 459.557,612.907 C 460.370,614.781 460.759,617.185 460.421,618.249 C 459.948,619.740 460.224,620.104 461.625,619.834 C 462.747,619.618 464.140,617.607 465.263,614.583M 517.500,618 C 517.500,616.729 514.616,616.458 498.630,616.227 C 480.275,615.962 475.989,616.554 477.583,619.134 C 477.897,619.643 486.789,619.923 497.822,619.771 C 514.527,619.541 517.500,619.273 517.500,618M 422.249,611.298 C 422.065,608.376 422.527,606.833 423.976,605.522 C 426.355,603.369 425.758,602 422.441,602 C 420.083,602 420,602.240 420,609.083 C 420,614.318 420.326,616.052 421.250,615.726 C 422.029,615.451 422.405,613.782 422.249,611.298M 604.507,609.994 C 605.316,609.322 605.731,608.375 605.430,607.887 C 605.121,607.386 577.252,607 541.441,607 C 487.374,607 478,607.210 478,608.417 C 478,609.196 478.453,609.984 479.007,610.167 C 479.561,610.350 507.694,610.661 541.525,610.858 C 588.921,611.134 603.373,610.935 604.507,609.994M 394.744,608.287 C 394.963,607.620 393.985,606.783 392.571,606.428 C 390.466,605.900 390,605.191 390,602.514 C 390,599.316 387.964,596.369 386.658,597.675 C 385.769,598.564 385.817,608.484 386.714,609.381 C 387.843,610.510 394.303,609.630 394.744,608.287M 639.625,606.875 C 639.281,605.156 639,602.456 639,600.875 C 639,598.667 638.536,598 637,598 C 635.250,598 635,598.666 635,603.333 C 635,609.199 635.396,610 638.292,610 C 639.952,610 640.155,609.524 639.625,606.875M 498.875,557.375 C 503.803,556.389 502.837,554 497.512,554 C 497.512,554 493.025,554 493.025,554 C 493.025,554 492.762,517.750 492.762,517.750 C 492.762,517.750 492.500,481.500 492.500,481.500 C 492.500,481.500 479.572,481.500 479.572,481.500 C 479.572,481.500 466.644,481.500 466.644,481.500 C 466.644,481.500 465.777,484.500 465.777,484.500 C 465.300,486.150 464.987,499.200 465.082,513.500 C 465.177,527.800 465.197,542.763 465.127,546.750 C 465.127,546.750 465,554 465,554 C 465,554 455.517,554 455.517,554 C 455.517,554 446.034,554 446.034,554 C 446.034,554 445.767,528.750 445.767,528.750 C 445.767,528.750 445.500,503.500 445.500,503.500 C 445.500,503.500 432.500,503.500 432.500,503.500 C 432.500,503.500 419.500,503.500 419.500,503.500 C 419.500,503.500 419.233,528.750 419.233,528.750 C 419.233,528.750 418.966,554 418.966,554 C 418.966,554 409.006,554 409.006,554 C 409.006,554 399.047,554 399.047,554 C 399.047,554 398.774,536.750 398.774,536.750 C 398.774,536.750 398.500,519.500 398.500,519.500 C 398.500,519.500 385.500,519.500 385.500,519.500 C 385.500,519.500 372.500,519.500 372.500,519.500 C 372.500,519.500 372.226,536.750 372.226,536.750 C 372.226,536.750 371.953,554 367.250,557.338 C 369.080,558.077 495.190,558.112 498.875,557.375M 639.827,480.564 C 640.057,478.603 639.762,477.911 638.827,478.218 C 638.097,478.458 637.353,479.906 637.173,481.436 C 636.943,483.397 637.238,484.089 638.173,483.782 C 638.903,483.542 639.647,482.094 639.827,480.564M 652.993,469.085 C 653.541,467.113 653.991,463.844 653.994,461.820 C 653.999,458.767 654.383,458.085 656.250,457.820 C 661.771,457.036 656.233,444.005 648.217,438.922 C 642.787,435.478 637.757,435.081 635.757,437.937 C 634.793,439.314 632.969,439.965 629.450,440.187 C 624.861,440.477 624.477,440.704 629.500,445.500 C 629.500,445.500 630,454.500 630,454.500 C 630,454.500 630.500,463.500 630.500,463.500 C 630.500,463.500 638.990,464 638.990,464 C 648.518,464.561 649.432,465.423 646.573,471.154 C 645.708,472.889 645.019,475.701 645.042,477.404 C 645.042,477.404 645.083,480.500 645.083,480.500 C 645.083,480.500 648.540,476.585 648.540,476.585 C 650.441,474.432 652.445,471.057 652.993,469.085M 413.066,456.965 C 414.130,456.396 415,455.338 415,454.614 C 415,453.716 416.508,453.286 419.750,453.261 C 428.420,453.194 430.492,452.667 430.602,450.500 C 430.794,446.730 431.002,446 431.879,446 C 433.302,446 435.236,451.680 434.550,453.842 C 433.811,456.169 435.674,457.725 437.279,456.121 C 439.321,454.079 442.034,445.634 435.921,443.921 C 434.514,442.514 433.221,442.198 430.771,442.662 C 428.972,443.003 426.978,443.690 426.339,444.189 C 425.627,444.746 424.928,444.692 424.530,444.049 C 423.679,442.673 418.701,442.699 417.313,444.087 C 416.530,444.870 416.038,444.870 415.554,444.087 C 414.646,442.619 407.697,442.703 406.200,444.200 C 405.267,445.133 404.733,445.133 403.800,444.200 C 401.169,441.569 400,442.891 400,448.500 C 400,452.866 400.329,454 401.594,454 C 403.261,451.319 407.138,450.750 407,454.456 C 407,458.102 409.223,459.022 413.066,456.965M 456.825,451.711 C 457.492,450.907 457.630,448.556 457.190,445.461 C 457.190,445.461 456.485,440.500 456.485,440.500 C 456.485,440.500 452.243,440.193 452.243,440.193 C 452.243,440.193 448,439.885 448,439.885 C 448,439.885 448,446.443 448,446.443 C 448,446.443 448,453 448,453 C 448,453 451.878,453 451.878,453 C 454.011,453 456.237,452.420 456.825,451.711M 462,449.141 C 462,447.633 462.562,445.822 463.250,445.115 C 464.260,444.077 464.021,443.894 462,444.165 C 460.098,444.420 459.422,445.178 459.175,447.334 C 458.997,448.893 459.106,450.835 459.418,451.648 C 460.283,453.901 462,452.234 462,449.141M 473.464,452.059 C 473.784,451.541 472.847,451.204 471.382,451.309 C 462.607,450.826 475.033,447.895 474,447.200 C 474,442.711 468.955,441.613 466.381,445.541 C 463.995,449.183 465.806,453 469.920,453 C 471.549,453 473.144,452.577 473.464,452.059M 484,449.200 C 484,443.501 480.008,440.876 476.948,444.563 C 476.352,445.767 483.662,445.954 478.750,447.180 C 477.139,447.409 476.411,448.281 476.184,450.250 C 475.885,452.851 476.088,453 479.934,453 C 483.976,453 484,452.977 484,449.200M 488.414,451.364 C 488.986,449.874 489.219,449.888 491.027,451.524 C 496.514,449.380 486.991,441.119 487,441 C 486.444,441 486,443.667 486,447 C 486,452.778 487.105,454.775 488.414,451.364M 504.118,448.750 C 504.300,442.209 503.375,438.684 502.280,441.750 C 502.034,442.438 501.061,443 500.117,443 C 497.523,443 496,445.046 496,448.533 C 496,452.477 496.547,453 500.667,453 C 503.903,453 504.003,452.876 504.118,448.750M 510.965,451.066 C 511.534,450.002 511.984,447.865 511.965,446.316 C 512.804,440.983 506.910,451.615 506,444.134 C 506,446.375 508.334,453 509.123,453 C 509.567,453 510.396,452.130 510.965,451.066M 648.571,412.107 C 653.453,409.890 658.294,404.303 659.859,399.078 C 661.457,393.746 661.457,296.254 659.859,290.922 C 658.294,285.697 653.453,280.110 648.571,277.893 C 644.678,276.125 638.736,276.043 512.218,276.022 C 394.855,276.002 379.517,276.175 376.218,277.553 C 371.288,279.612 367.165,283.598 364.896,288.500 C 363.169,292.230 363.042,296.027 363.022,344.782 C 362.998,401.819 362.933,401.116 368.803,407.376 C 370.286,408.958 373.300,411.085 375.500,412.104 C 379.330,413.877 385.138,413.956 512,413.956 C 638.756,413.956 644.677,413.876 648.571,412.107M 500.555,251.471 C 501.900,248.430 503,245.308 503,244.531 C 503,242.258 500.804,241.548 499.460,243.386 C 498.347,244.908 497.867,244.663 494.679,240.938 C 490.960,236.593 489,236.463 489,240.559 C 489,241.902 488.796,243 488.547,243 C 487.245,243 482.355,240.337 481.402,239.109 C 477.603,242.397 474.606,239.538 472.549,240.263 C 471.663,241.475 469.893,242 466.689,242 C 463.566,242 461.820,242.500 461.225,243.563 C 460.432,244.981 460.229,244.981 459.052,243.563 C 457.345,241.506 452.604,241.565 445.180,242.405 C 444.695,248.331 445.710,251.309 448.009,250.708 C 449.064,250.432 450.448,250.835 451.086,251.603 C 452.598,253.425 457.425,253.398 458.951,251.559 C 460.746,248.123 466.459,248.123 468.187,248.250 C 468.423,250.703 468.991,251.515 470.500,251.562 C 471.600,251.596 473.250,251.966 474.166,252.386 C 475.082,252.806 477.105,253.004 478.661,252.825 C 480.922,252.566 481.594,251.897 482.005,249.500 C 482.659,245.687 484.345,245.719 485.010,249.557 C 485.460,252.153 485.930,252.500 489,252.500 C 492.070,252.500 492.550,252.146 494.975,249.220 C 496.024,251.382 496.041,252.246 495.061,253.427 C 493.635,255.145 494.441,257 496.614,257 C 497.467,257 499.161,254.622 500.555,251.471M 589.022,249.421 C 590.386,244.551 589.740,242.606 587.690,245.410 C 586.495,247.045 586.312,246.980 585.194,244.527 C 584.156,242.248 583.467,241.923 580.244,242.190 C 580.244,242.190 576.500,242.500 576.500,242.500 C 576.500,242.500 576.500,247.250 576.500,247.250 C 576.500,253.079 578.313,253.993 579,248.510 C 579.338,245.816 580.049,244.415 581.191,244.198 C 583.522,243.755 585.890,251.345 584.244,253.981 C 583.625,254.973 583.392,256.058 583.728,256.394 C 584.927,257.593 587.790,253.822 589.022,249.421M 564,248.632 C 564,244.606 561.969,241.666 560.793,247.500 C 560.954,249.150 561.289,251.091 561.536,251.813 C 562.332,254.138 564,251.985 564,248.632M 574.133,252.534 C 574.389,252.277 574.352,249.915 574.050,247.284 C 573.510,242.588 573.436,242.500 570,242.500 C 567.167,242.500 566.500,242.881 565.503,251.009 C 565.987,252.533 567.019,253 569.901,253 C 571.972,253 573.876,252.791 574.133,252.534M 512,241.878 C 512,238.327 511.792,237.928 510.500,239 C 508.970,240.270 508.463,244.128 509.667,245.333 C 511.224,246.890 512,245.741 512,241.878" stroke="#F8F8F8" fill="#F8F8F8" stroke-width="1" />
  <path id="28" d="M 367.250,557.338 C 364.744,556.327 365.947,554 368.976,554 C 368.976,554 371.953,554 371.953,554 C 371.953,554 372.226,536.750 372.226,536.750 C 372.226,536.750 372.500,519.500 372.500,519.500 C 372.500,519.500 385.500,519.500 385.500,519.500 C 385.500,519.500 398.500,519.500 398.500,519.500 C 398.500,519.500 398.774,536.750 398.774,536.750 C 398.774,536.750 399.047,554 399.047,554 C 399.047,554 409.006,554 409.006,554 C 409.006,554 418.966,554 418.966,554 C 418.966,554 419.233,528.750 419.233,528.750 C 419.233,528.750 419.500,503.500 419.500,503.500 C 419.500,503.500 432.500,503.500 432.500,503.500 C 432.500,503.500 445.500,503.500 445.500,503.500 C 445.500,503.500 445.767,528.750 445.767,528.750 C 445.767,528.750 446.034,554 446.034,554 C 446.034,554 455.517,554 455.517,554 C 455.517,554 465,554 465,554 C 465,554 465.127,546.750 465.127,546.750 C 465.197,542.763 465.177,527.800 465.082,513.500 C 464.987,499.200 465.300,486.150 465.777,484.500 C 465.777,484.500 466.644,481.500 466.644,481.500 C 466.644,481.500 479.572,481.500 479.572,481.500 C 479.572,481.500 492.500,481.500 492.500,481.500 C 492.500,481.500 492.762,517.750 492.762,517.750 C 492.762,517.750 493.025,554 493.025,554 C 493.025,554 497.512,554 497.512,554 C 502.837,554 503.803,556.389 498.875,557.375 C 495.190,558.112 369.080,558.077 367.250,557.338M 395.500,538 C 395.500,538 395.500,522.500 395.500,522.500 C 395.500,522.500 385.891,522.216 385.891,522.216 C 385.891,522.216 376.281,521.931 376.281,521.931 C 376.281,521.931 375.770,530.904 375.770,530.904 C 375.489,535.839 375.487,543.070 375.766,546.973 C 375.766,546.973 376.274,554.069 376.274,554.069 C 376.274,554.069 385.887,553.785 385.887,553.785 C 385.887,553.785 395.500,553.500 395.500,553.500 C 395.500,553.500 395.500,538 395.500,538M 442.393,552.418 C 442.727,551.548 443,540.973 443,528.918 C 443,528.918 443,507 443,507 C 443,507 433.117,507 433.117,507 C 423.713,507 423.204,507.109 422.630,509.250 C 421.804,512.334 421.837,552.503 422.667,553.333 C 423.034,553.700 427.486,554 432.560,554 C 440.051,554 441.900,553.702 442.393,552.418M 489,518.964 C 489,518.964 489,483.928 489,483.928 C 489,483.928 479.250,484.214 479.250,484.214 C 479.250,484.214 469.500,484.500 469.500,484.500 C 469.500,484.500 469.237,519.250 469.237,519.250 C 469.237,519.250 468.974,554 468.974,554 C 468.974,554 478.987,554 478.987,554 C 478.987,554 489,554 489,554 C 489,554 489,518.964 489,518.964" stroke="#52575D" fill="#52575D" stroke-width="1" />
  <path id="29" d="M 498.184,448.259 C 498.375,446.606 499.195,445.385 500.250,445.185 C 501.609,444.927 502,445.540 502,447.927 C 502,450.367 501.574,451 499.934,451 C 498.271,451 497.929,450.465 498.184,448.259" stroke="#F8F8F8" fill="#F8F8F8" stroke-width="1" />
  <path id="28" d="M 375.500,412.104 C 373.300,411.085 370.286,408.958 368.803,407.376 C 362.933,401.116 362.998,401.819 363.022,344.782 C 363.042,296.027 363.169,292.230 364.896,288.500 C 367.165,283.598 371.288,279.612 376.218,277.553 C 379.517,276.175 394.855,276.002 512.218,276.022 C 638.736,276.043 644.678,276.125 648.571,277.893 C 653.453,280.110 658.294,285.697 659.859,290.922 C 661.457,296.254 661.457,393.746 659.859,399.078 C 658.294,404.303 653.453,409.890 648.571,412.107 C 644.677,413.876 638.756,413.956 512,413.956 C 385.138,413.956 379.330,413.877 375.500,412.104M 639.145,410.089 C 648.037,409.155 652.004,406.874 655.023,400.956 C 656.918,397.242 657,394.907 657,345 C 657,295.093 656.918,292.758 655.023,289.044 C 652.515,284.129 648.543,281.299 642.366,280.026 C 639.226,279.379 591.703,279.108 508.336,279.262 C 508.336,279.262 379.172,279.500 379.172,279.500 C 379.172,279.500 374.939,282.500 374.939,282.500 C 366.655,288.372 367,285.664 367,344.833 C 367,403.060 366.827,401.479 373.742,406.753 C 375.646,408.205 379.070,409.698 381.352,410.071 C 387.268,411.039 629.941,411.056 639.145,410.089" stroke="#52575D" fill="#52575D" stroke-width="1" />
  <path id="29" d="M 379.500,840.605 C 369.227,837.328 358.357,828.878 353.288,820.228 C 348.317,811.746 345.292,797.710 348.250,796.851 C 348.938,796.651 378.525,796.491 414,796.494 C 414,796.494 478.500,796.500 478.500,796.500 C 478.500,796.500 485.250,801.710 485.250,801.710 C 502.108,814.722 525.311,814.039 541.290,800.061 C 541.290,800.061 544.500,797.253 544.500,797.253 C 544.500,797.253 563,796.963 563,796.963 C 573.175,796.804 602.987,796.747 629.250,796.837 C 629.250,796.837 677,797 677,797 C 677,797 677,800.411 677,800.411 C 677,804.938 673.844,814.883 670.712,820.228 C 666.925,826.690 657.864,834.697 650.259,838.299 C 650.259,838.299 643.500,841.500 643.500,841.500 C 643.500,841.500 513.500,841.691 513.500,841.691 C 410.425,841.842 382.672,841.617 379.500,840.605" stroke="#F8F8F8" fill="#F8F8F8" stroke-width="1" />
  <path id="29" d="M 499.329,805.066 C 485.155,799.963 475.652,788.534 472.790,773.146 C 468.441,749.761 490.862,725.874 514.868,728.317 C 523.286,729.174 527.369,730.655 534.216,735.341 C 541.110,740.059 548.115,749.244 550.172,756.263 C 553.403,767.287 550.635,782.079 543.622,791.274 C 533.550,804.479 514.326,810.465 499.329,805.066M 513.757,781.421 C 514.215,770.886 514.131,771 521.437,771 C 529.127,771 531,770.392 531,767.893 C 531,766.184 530.173,766 522.500,766 C 522.500,766 514,766 514,766 C 514,766 514,757.622 514,757.622 C 514,751.834 513.585,748.901 512.658,748.131 C 510.463,746.309 510,747.875 510,757.128 C 510,757.128 510,765.922 510,765.922 C 510,765.922 501.250,766.211 501.250,766.211 C 494.267,766.442 492.500,766.803 492.500,768 C 492.500,769.195 494.251,769.558 501.114,769.787 C 501.114,769.787 509.728,770.074 509.728,770.074 C 509.728,770.074 509.241,776.873 509.241,776.873 C 508.936,781.134 509.199,784.503 509.945,785.897 C 511.927,789.601 513.481,787.777 513.757,781.421" stroke="#F8F8F8" fill="#F8F8F8" stroke-width="1" />
  <path id="29" d="M 346.587,767.506 C 346.195,753.484 346.154,741.559 346.496,741.006 C 347.134,739.974 477,739.485 477,740.515 C 477,740.798 475.637,743.446 473.971,746.398 C 472.305,749.350 470.257,755.047 469.421,759.058 C 467.516,768.196 468.727,777.611 472.984,786.750 C 472.984,786.750 475.895,793 475.895,793 C 475.895,793 411.598,793 411.598,793 C 411.598,793 347.301,793 347.301,793 C 347.301,793 346.587,767.506 346.587,767.506M 395.850,777.437 C 396.043,777.270 395.904,776.654 395.541,776.067 C 395.146,775.427 390.903,775 384.941,775 C 377.031,775 375,775.290 375,776.417 C 375,777.196 375.562,778.027 376.250,778.264 C 377.554,778.714 395.239,777.967 395.850,777.437M 410,766.500 C 410,765.224 407.389,765 392.500,765 C 377.611,765 375,765.224 375,766.500 C 375,767.776 377.611,768 392.500,768 C 407.389,768 410,767.776 410,766.500M 406.501,756.998 C 407.883,754.762 401.476,753.917 388.316,754.600 C 378.122,755.129 375,755.608 375,756.645 C 375,757.726 378.119,758 390.441,758 C 399.676,758 406.131,757.597 406.501,756.998" stroke="#F8F8F8" fill="#F8F8F8" stroke-width="1" />
  <path id="28" d="M 479.007,610.167 C 478.453,609.984 478,609.196 478,608.417 C 478,607.210 487.374,607 541.441,607 C 577.252,607 605.121,607.386 605.430,607.887 C 607.367,611.022 603.181,611.216 541.525,610.858 C 507.694,610.661 479.561,610.350 479.007,610.167" stroke="#52575D" fill="#52575D" stroke-width="1" />
  <path id="29" d="M 422.667,553.333 C 421.837,552.503 421.804,512.334 422.630,509.250 C 423.204,507.109 423.713,507 433.117,507 C 433.117,507 443,507 443,507 C 443,507 443,528.918 443,528.918 C 443,540.973 442.727,551.548 442.393,552.418 C 441.900,553.702 440.051,554 432.560,554 C 427.486,554 423.034,553.700 422.667,553.333" stroke="#F8F8F8" fill="#F8F8F8" stroke-width="1" />
  <path id="29" d="M 375.766,546.973 C 375.487,543.070 375.489,535.839 375.770,530.904 C 375.770,530.904 376.281,521.931 376.281,521.931 C 376.281,521.931 385.891,522.216 385.891,522.216 C 385.891,522.216 395.500,522.500 395.500,522.500 C 395.500,522.500 395.500,538 395.500,538 C 395.500,538 395.500,553.500 395.500,553.500 C 395.500,553.500 385.887,553.785 385.887,553.785 C 385.887,553.785 376.274,554.069 376.274,554.069 C 376.274,554.069 375.766,546.973 375.766,546.973" stroke="#F8F8F8" fill="#F8F8F8" stroke-width="1" />
  <path id="4" d="M 637.173,481.436 C 637.353,479.906 638.097,478.458 638.827,478.218 C 639.762,477.911 640.057,478.603 639.827,480.564 C 639.647,482.094 638.903,483.542 638.173,483.782 C 637.238,484.089 636.943,483.397 637.173,481.436" stroke="#E7E7E7" fill="#E7E7E7" stroke-width="1" />
  <path id="29" d="M 440.250,652.750 C 440.880,650.858 444,650.589 444,652.427 C 444,653.355 443.145,654 441.917,654 C 440.695,654 440.006,653.483 440.250,652.750" stroke="#F8F8F8" fill="#F8F8F8" stroke-width="1" />
  <path id="28" d="M 507.635,705.260 C 507.635,705.260 502.769,704.881 502.769,704.881 C 502.769,704.881 503.494,694.190 503.494,694.190 C 503.893,688.310 504.507,683.275 504.859,683 C 505.211,682.725 505.996,681.600 506.602,680.500 C 507.877,678.187 511.992,677.183 512.015,679.180 C 512.027,680.245 512.196,680.238 512.890,679.143 C 514.023,677.355 517.718,678.535 518.477,680.928 C 518.855,682.119 520.427,682.972 522.997,683.383 C 528.071,684.194 529,686.050 529,695.363 C 529,705.119 528.116,706.061 519.179,705.820 C 515.506,705.721 510.311,705.469 507.635,705.260M 518.794,694.250 C 518.794,694.250 519.088,687 519.088,687 C 519.088,687 512.544,687 512.544,687 C 512.544,687 506,687 506,687 C 506,687 506,694.548 506,694.548 C 506,694.548 506,702.095 506,702.095 C 506,702.095 512.250,701.798 512.250,701.798 C 512.250,701.798 518.500,701.500 518.500,701.500 C 518.500,701.500 518.794,694.250 518.794,694.250M 525,694.500 C 525,688.500 524.700,687 523.500,687 C 522.300,687 522,688.500 522,694.500 C 522,700.500 522.300,702 523.500,702 C 524.700,702 525,700.500 525,694.500" stroke="#52575D" fill="#52575D" stroke-width="1" />
  <path id="28" d="M 375,756.645 C 375,754.848 400.272,753.393 404.376,754.953 C 409.986,757.086 405.806,758 390.441,758 C 378.119,758 375,757.726 375,756.645" stroke="#52575D" fill="#52575D" stroke-width="1" />
  <path id="4" d="M 677.336,317 C 677.336,312.875 677.512,311.188 677.728,313.250 C 677.944,315.312 677.944,318.688 677.728,320.750 C 677.512,322.812 677.336,321.125 677.336,317" stroke="#E7E7E7" fill="#E7E7E7" stroke-width="1" />
  <path id="61" d="M 635.667,609.333 C 635.300,608.966 635,606.266 635,603.333 C 635,598.666 635.250,598 637,598 C 638.536,598 639,598.667 639,600.875 C 639,602.456 639.281,605.156 639.625,606.875 C 640.155,609.524 639.952,610 638.292,610 C 637.215,610 636.034,609.700 635.667,609.333" stroke="#53585E" fill="#53585E" stroke-width="1" />
  <path id="29" d="M 381.352,410.071 C 379.070,409.698 375.646,408.205 373.742,406.753 C 366.827,401.479 367,403.060 367,344.833 C 367,285.664 366.655,288.372 374.939,282.500 C 374.939,282.500 379.172,279.500 379.172,279.500 C 379.172,279.500 508.336,279.262 508.336,279.262 C 591.703,279.108 639.226,279.379 642.366,280.026 C 648.543,281.299 652.515,284.129 655.023,289.044 C 656.918,292.758 657,295.093 657,345 C 657,394.907 656.918,397.242 655.023,400.956 C 652.004,406.874 648.037,409.155 639.145,410.089 C 629.941,411.056 387.268,411.039 381.352,410.071M 518.383,396.525 C 530.669,394.335 541.470,388.071 538.346,384.947 C 537.535,384.136 536.154,384.391 533.195,385.901 C 521.171,392.035 509.039,394.177 498.196,392.081 C 493.961,391.262 493.897,391.291 494.196,393.874 C 494.454,396.096 495.115,396.593 498.500,397.108 C 505.247,398.134 510.166,397.989 518.383,396.525M 616.782,386.288 C 617.018,377.015 616.812,375.142 615.500,374.638 C 612.873,373.630 611.786,378.556 612.552,387.997 C 613.303,397.257 613.602,398.298 615.342,397.721 C 616.103,397.468 616.597,393.548 616.782,386.288M 625.500,391.430 C 625.500,386.603 625.181,385.466 623.750,385.190 C 622.243,384.900 622,385.673 622,390.760 C 622,394.009 622.310,396.976 622.688,397.354 C 624.433,399.099 625.500,396.851 625.500,391.430M 635,383.500 C 635,371.979 634.722,369 633.647,369 C 632.617,369 632.164,371.819 631.750,380.813 C 631.143,393.997 631.578,398 633.617,398 C 634.731,398 635,395.179 635,383.500M 512,377.134 C 512,375.545 510.998,375.197 505.234,374.785 C 496.646,374.171 490.423,371.411 483.933,365.341 C 474.896,356.888 471.026,345.921 473.073,334.562 C 476.014,318.237 489.979,306.063 506.242,305.647 C 511.582,305.510 511.984,305.334 511.992,303.116 C 512,300.787 511.842,300.743 505.250,301.248 C 488.861,302.502 476.074,312.259 470.051,328.107 C 464.436,342.880 471.181,362.715 485,372.068 C 492.201,376.942 498.085,378.893 505.750,378.952 C 511.200,378.994 512,378.761 512,377.134M 562.888,354.739 C 567.838,336.546 563.138,317.591 549.982,302.699 C 540.570,292.044 528.454,286.026 511.250,283.458 C 507.405,282.884 507,283.023 507,284.912 C 507,286.060 507.337,287.044 507.750,287.099 C 508.163,287.154 510.525,287.375 513,287.590 C 530.699,289.126 548.098,301.574 556.114,318.435 C 560.077,326.771 561.354,333.939 560.576,343.467 C 558.559,368.162 558.849,369.583 562.888,354.739M 513.537,358.941 C 513.897,358.358 511.674,355.242 508.596,352.015 C 502.820,345.959 501.842,344 504.596,344 C 507.475,344 511.938,340.651 513.531,337.294 C 514.672,334.889 515.756,334 517.535,330 C 516.088,330 514.625,329.168 513.992,327.985 C 512.858,325.867 513.282,325.474 517.417,324.809 C 518.471,324.639 519.498,324.007 519.699,323.404 C 519.939,322.682 516.552,322.093 509.782,321.680 C 497.956,320.958 495,321.446 495,324.117 C 495,325.727 495.777,326 500.345,326 C 504.378,326 506.124,326.480 507.458,327.954 C 509.195,329.874 509.098,329.913 501.863,330.204 C 496.116,330.435 494.500,330.829 494.500,332 C 494.500,333.168 496.103,333.565 501.750,333.794 C 509.523,334.109 510.700,335.151 507.032,338.471 C 505.785,339.600 503.318,340.299 500.295,340.381 C 493.171,340.573 493.497,342.589 502.172,351.968 C 509.143,359.505 512.076,361.305 513.537,358.941" stroke="#F8F8F8" fill="#F8F8F8" stroke-width="1" />
  <path id="28" d="M 466.694,656.361 C 464.732,654.399 469.944,654 497.559,654 C 523.951,654 528,654.200 528,655.500 C 528,656.800 523.963,657 497.667,657 C 480.984,657 467.046,656.713 466.694,656.361" stroke="#52575D" fill="#52575D" stroke-width="1" />
  <path id="28" d="M 467.729,646.894 C 466.755,646.335 466.219,645.455 466.538,644.939 C 467.359,643.611 612.683,643.678 613.504,645.007 C 613.846,645.561 613.535,646.210 612.813,646.448 C 609.783,647.448 469.446,647.880 467.729,646.894" stroke="#52575D" fill="#52575D" stroke-width="1" />
  <path id="63" d="M 506.343,694.500 C 506.347,690.100 506.522,688.424 506.733,690.776 C 506.944,693.128 506.942,696.728 506.727,698.776 C 506.512,700.824 506.339,698.900 506.343,694.500" stroke="#D0D4D5" fill="#D0D4D5" stroke-width="1" />
  <path id="4" d="M 645.042,477.404 C 645.019,475.701 645.708,472.889 646.573,471.154 C 649.432,465.423 648.518,464.561 638.990,464 C 638.990,464 630.500,463.500 630.500,463.500 C 630.500,463.500 630,454.500 630,454.500 C 630,454.500 629.500,445.500 624.179,443.299 C 624.477,440.704 624.861,440.477 629.450,440.187 C 632.969,439.965 634.793,439.314 635.757,437.937 C 637.757,435.081 642.787,435.478 648.217,438.922 C 656.233,444.005 661.771,457.036 656.250,457.820 C 654.383,458.085 653.999,458.767 653.994,461.820 C 653.985,467.694 652.255,472.378 648.540,476.585 C 648.540,476.585 645.083,480.500 645.083,480.500 C 645.083,480.500 645.042,477.404 645.042,477.404M 652.823,451.701 C 653.229,449.566 645.072,441 642.632,441 C 641.289,441 641,442.160 641,447.550 C 641,447.550 641,454.100 641,454.100 C 641,454.100 646.740,453.800 646.740,453.800 C 651.331,453.560 652.549,453.140 652.823,451.701" stroke="#E7E7E7" fill="#E7E7E7" stroke-width="1" />
  <path id="28" d="M 502.172,351.968 C 493.497,342.589 493.171,340.573 500.295,340.381 C 503.318,340.299 505.785,339.600 507.032,338.471 C 510.700,335.151 509.523,334.109 501.750,333.794 C 496.103,333.565 494.500,333.168 494.500,332 C 494.500,330.829 496.116,330.435 501.863,330.204 C 509.098,329.913 509.195,329.874 507.458,327.954 C 506.124,326.480 504.378,326 500.345,326 C 495.777,326 495,325.727 495,324.117 C 495,321.446 497.956,320.958 509.782,321.680 C 516.552,322.093 519.939,322.682 519.699,323.404 C 519.498,324.007 518.471,324.639 517.417,324.809 C 513.282,325.474 512.858,325.867 513.992,327.985 C 514.625,329.168 516.088,330 517.547,334 C 515.756,334 514.672,334.889 513.531,337.294 C 511.938,340.651 507.475,344 504.596,344 C 501.842,344 502.820,345.959 508.596,352.015 C 513.985,357.664 514.769,360.061 511.191,359.945 C 510.261,359.915 506.202,356.325 502.172,351.968" stroke="#52575D" fill="#52575D" stroke-width="1" />
  <path id="61" d="M 631.664,624.777 C 629.554,624.218 626.291,622.224 624.414,620.347 C 621.063,616.996 621,616.778 621,608.401 C 621,598.555 621.620,597.013 627.202,592.969 C 630.587,590.517 632.275,590.001 636.900,590.004 C 643.950,590.009 647.925,592.309 651.539,598.476 C 653.831,602.387 654.173,603.939 653.819,608.832 C 653.590,612.004 652.639,615.678 651.701,617.016 C 650.039,619.388 650,619.257 650,611.370 C 650,604.636 649.624,602.737 647.734,599.933 C 643.103,593.061 633.465,592.335 627.400,598.400 C 618.992,606.808 624.486,621 636.148,621 C 639.261,621 640,621.363 640,622.893 C 640,623.934 639.288,625.059 638.418,625.393 C 636.583,626.097 636.681,626.106 631.664,624.777" stroke="#53585E" fill="#53585E" stroke-width="1" />
  <path id="28" d="M 485.613,193.166 C 484.625,192.975 484.023,192.119 484.206,191.166 C 484.494,189.669 487.263,189.473 511.628,189.234 C 534.754,189.007 538.912,189.189 539.977,190.472 C 540.982,191.683 540.960,192.066 539.863,192.438 C 538.257,192.982 488.139,193.655 485.613,193.166" stroke="#52575D" fill="#52575D" stroke-width="1" />
  <path id="29" d="M 522,694.500 C 522,688.500 522.300,687 523.500,687 C 524.700,687 525,688.500 525,694.500 C 525,700.500 524.700,702 523.500,702 C 522.300,702 522,700.500 522,694.500" stroke="#F8F8F8" fill="#F8F8F8" stroke-width="1" />
  <path id="28" d="M 557.506,705.009 C 556.841,703.933 558.665,686.351 565.005,681.488 C 566.424,677.755 570.284,676.300 573.383,678.331 C 574.739,679.219 576.138,680.858 576.492,681.973 C 576.846,683.088 577.988,684 579.032,684 C 581.927,684 582.870,686.847 583.199,696.589 C 583.199,696.589 583.500,705.500 583.500,705.500 C 583.500,705.500 570.827,705.779 570.827,705.779 C 562.762,705.957 557.919,705.677 557.506,705.009M 580.135,697.308 C 579.982,694.452 579.497,690.852 579.055,689.308 C 578.867,680.952 576.134,693.394 574,689.500 C 572.668,685.997 568.317,686.034 563.052,688.550 C 562.531,689.073 561.792,692.555 561.410,696.288 C 561.410,696.288 560.716,703.076 560.716,703.076 C 560.716,703.076 570.565,702.788 570.565,702.788 C 570.565,702.788 580.413,702.500 580.413,702.500 C 580.413,702.500 580.135,697.308 580.135,697.308M 572.569,682.888 C 573.545,681.309 570.838,679.890 569.295,681.171 C 568.595,681.752 568.269,682.625 568.570,683.113 C 569.337,684.355 571.746,684.219 572.569,682.888" stroke="#52575D" fill="#52575D" stroke-width="1" />
  <path id="37" d="M 498.680,809.033 C 492.474,807.050 485,802.636 485,800.954 C 485,798.866 488.029,798.885 490.986,800.990 C 503.028,809.565 523.084,808.688 535.750,799.033 C 538.638,796.832 541,795.447 539.647,799.758 C 540.227,801.976 531.871,807.160 524.068,809.424 C 516.867,811.513 505.915,811.345 498.680,809.033" stroke="#535B60" fill="#535B60" stroke-width="1" />
  <path id="63" d="M 420,609.083 C 420,602.240 420.083,602 422.441,602 C 425.758,602 426.355,603.369 423.976,605.522 C 422.527,606.833 422.065,608.376 422.249,611.298 C 422.405,613.782 422.029,615.451 421.250,615.726 C 420.326,616.052 420,614.318 420,609.083" stroke="#D0D4D5" fill="#D0D4D5" stroke-width="1" />
  <path id="28" d="M 552.626,194.483 C 550.487,192.344 550.566,189.703 552.829,187.655 C 555.262,185.454 557.298,185.567 559.527,188.030 C 563.621,192.554 556.943,198.800 552.626,194.483" stroke="#52575D" fill="#52575D" stroke-width="1" />
  <path id="29" d="M 500.479,700.805 C 499.554,698.394 500.390,687.500 501.500,687.500 C 502.845,687.500 503.374,700.026 502.084,701.316 C 501.392,702.008 500.877,701.843 500.479,700.805" stroke="#F8F8F8" fill="#F8F8F8" stroke-width="1" />
  <path id="60" d="M 327.643,410.232 C 327.346,409.751 326.993,400.949 326.859,390.671 C 326.684,377.252 326.952,371.648 327.808,370.792 C 330.508,368.092 331.043,371.738 330.772,390.990 C 330.581,404.548 330.154,410.450 329.342,410.720 C 328.705,410.932 327.940,410.713 327.643,410.232" stroke="#D7DDE2" fill="#D7DDE2" stroke-width="1" />
  <path id="62" d="M 464.667,705.333 C 464.300,704.966 464,702.450 464,699.741 C 464,696.330 463.385,694.034 462,692.273 C 459.598,689.219 459.459,685.948 461.558,681.888 C 462.690,679.699 463.715,678.961 465.308,679.188 C 467.392,679.485 467.515,680.044 467.791,690.500 C 468.151,704.128 467.336,708.002 464.667,705.333" stroke="#676C70" fill="#676C70" stroke-width="1" />
  <path id="63" d="M 498.500,397.108 C 495.115,396.593 494.454,396.096 494.196,393.874 C 493.897,391.291 493.961,391.262 498.196,392.081 C 509.039,394.177 521.171,392.035 533.195,385.901 C 536.154,384.391 537.535,384.136 538.346,384.947 C 541.470,388.071 530.669,394.335 518.383,396.525 C 510.166,397.989 505.247,398.134 498.500,397.108" stroke="#D0D4D5" fill="#D0D4D5" stroke-width="1" />
  <path id="62" d="M 452.015,692.309 C 452.025,683.024 452.348,678.991 453,680 C 453.533,680.825 454.038,683.075 454.121,685 C 454.234,687.614 454.372,687.867 454.666,686 C 455.531,680.510 456.101,678.945 457.029,679.518 C 458.772,680.595 458.102,687.601 456,690.273 C 454.502,692.177 454,694.330 454,698.849 C 454,702.167 453.550,705.160 453,705.500 C 452.352,705.901 452.005,701.264 452.015,692.309" stroke="#676C70" fill="#676C70" stroke-width="1" />
  <path id="63" d="M 688.475,649.500 C 688.475,608.800 688.599,592.296 688.750,612.824 C 688.901,633.352 688.901,666.652 688.750,686.824 C 688.599,706.996 688.475,690.200 688.475,649.500" stroke="#D0D4D5" fill="#D0D4D5" stroke-width="1" />
  <path id="50" d="M 448,446.443 C 448,446.443 448,439.885 448,439.885 C 448,439.885 452.243,440.193 452.243,440.193 C 452.243,440.193 456.485,440.500 456.485,440.500 C 456.485,440.500 457.190,445.461 457.190,445.461 C 458.055,451.550 457.033,453 451.878,453 C 451.878,453 448,453 448,453 C 448,453 448,446.443 448,446.443M 453.896,451.086 C 455.571,450.026 454.562,446.648 452.749,447.245 C 451.358,447.703 450.387,452.009 451.680,451.985 C 452.131,451.977 453.128,451.572 453.896,451.086" stroke="#737677" fill="#737677" stroke-width="1" />
  <path id="29" d="M 469.237,519.250 C 469.237,519.250 469.500,484.500 469.500,484.500 C 469.500,484.500 479.250,484.214 479.250,484.214 C 479.250,484.214 489,483.928 489,483.928 C 489,483.928 489,518.964 489,518.964 C 489,518.964 489,554 489,554 C 489,554 478.987,554 478.987,554 C 478.987,554 468.974,554 468.974,554 C 468.974,554 469.237,519.250 469.237,519.250" stroke="#F8F8F8" fill="#F8F8F8" stroke-width="1" />
  <path id="28" d="M 375,766.500 C 375,765.224 377.611,765 392.500,765 C 407.389,765 410,765.224 410,766.500 C 410,767.776 407.389,768 392.500,768 C 377.611,768 375,767.776 375,766.500" stroke="#52575D" fill="#52575D" stroke-width="1" />
  <path id="28" d="M 376.250,778.264 C 375.562,778.027 375,777.196 375,776.417 C 375,775.290 377.031,775 384.941,775 C 390.903,775 395.146,775.427 395.541,776.067 C 395.904,776.654 396.043,777.270 395.850,777.437 C 395.239,777.967 377.554,778.714 376.250,778.264" stroke="#52575D" fill="#52575D" stroke-width="1" />
  <path id="60" d="M 622.320,391 C 622.320,387.425 622.501,385.962 622.723,387.750 C 622.945,389.538 622.945,392.462 622.723,394.250 C 622.501,396.038 622.320,394.575 622.320,391" stroke="#D7DDE2" fill="#D7DDE2" stroke-width="1" />
  <path id="45" d="M 420.681,652.422 C 419.971,648.048 420.576,646.344 423.068,645.692 C 425.382,645.087 426.626,646.546 424.494,647.364 C 423.565,647.720 423,649.252 423,651.410 C 423,656.111 421.393,656.812 420.681,652.422" stroke="#727576" fill="#727576" stroke-width="1" />
  <path id="37" d="M 623,391.500 C 623,386.611 623.333,384.944 624.250,385.250 C 625.060,385.520 625.500,387.722 625.500,391.500 C 625.500,395.278 625.060,397.480 624.250,397.750 C 623.333,398.056 623,396.389 623,391.500" stroke="#535B60" fill="#535B60" stroke-width="1" />
  <path id="56" d="M 583.728,256.394 C 583.392,256.058 583.625,254.973 584.244,253.981 C 585.890,251.345 583.522,243.755 581.191,244.198 C 580.049,244.415 579.338,245.816 579,248.510 C 578.313,253.993 576.500,253.079 576.500,247.250 C 576.500,247.250 576.500,242.500 576.500,242.500 C 576.500,242.500 580.244,242.190 580.244,242.190 C 583.467,241.923 584.156,242.248 585.194,244.527 C 586.312,246.980 586.495,247.045 587.690,245.410 C 589.740,242.606 590.386,244.551 589.022,249.421 C 587.790,253.822 584.927,257.593 583.728,256.394" stroke="#727576" fill="#727576" stroke-width="1" />
  <path id="56" d="M 561.536,251.813 C 561.289,251.091 560.954,249.150 559.517,242.141 C 561.969,241.666 564,244.606 564,248.632 C 564,251.985 562.332,254.138 561.536,251.813" stroke="#727576" fill="#727576" stroke-width="1" />
  <path id="50" d="M 486,447 C 486,443.667 486.444,441 487,441 C 491.027,442.598 491.027,452.712 488.414,451.364 C 487.105,454.775 486,452.778 486,447" stroke="#737677" fill="#737677" stroke-width="1" />
  <path id="62" d="M 477.583,619.134 C 475.989,616.554 480.275,615.962 498.630,616.227 C 514.616,616.458 517.500,616.729 517.500,618 C 517.500,619.273 514.527,619.541 497.822,619.771 C 486.789,619.923 477.897,619.643 477.583,619.134" stroke="#676C70" fill="#676C70" stroke-width="1" />
  <path id="45" d="M 449.648,659.315 C 449.301,658.968 449.509,658.091 450.111,657.366 C 450.913,656.400 450.777,654.794 449.602,651.346 C 447.706,645.781 447.730,646 449.025,646 C 449.215,651.416 456.807,646.365 455,646 C 456.436,646 456.259,647.231 453.935,653.443 C 451.847,659.023 450.796,660.463 449.648,659.315" stroke="#727576" fill="#727576" stroke-width="1" />
  <path id="45" d="M 428.200,654.800 C 427.540,654.140 427,652.205 427,650.500 C 427,646.995 428.534,645 431.231,645 C 432.238,645 433.321,644.328 433.636,643.506 C 434.834,640.383 436,643.367 436,649.559 C 436,649.559 436,656 436,656 C 436,656 432.700,656 432.700,656 C 430.885,656 428.860,655.460 428.200,654.800M 433.228,652.250 C 433.855,649.325 432.839,646.884 431.132,647.213 C 428.185,647.780 428.427,654 431.395,654 C 432.197,654 433.022,653.213 433.228,652.250" stroke="#727576" fill="#727576" stroke-width="1" />
  <path id="28" d="M 510.688,787.354 C 510.310,786.976 510,782.934 510,778.372 C 510,778.372 510,770.078 510,770.078 C 510,770.078 501.250,769.789 501.250,769.789 C 494.267,769.558 492.500,769.197 492.500,768 C 492.500,766.803 494.267,766.442 501.250,766.211 C 501.250,766.211 510,765.922 510,765.922 C 510,765.922 510,757.128 510,757.128 C 510,747.875 510.463,746.309 512.658,748.131 C 513.585,748.901 514,751.834 514,757.622 C 514,757.622 514,766 514,766 C 514,766 522.500,766 522.500,766 C 530.333,766 531,766.157 531,768 C 531,769.842 530.333,770 522.539,770 C 522.539,770 514.078,770 514.078,770 C 514.078,770 513.789,778.669 513.789,778.669 C 513.524,786.627 512.587,789.253 510.688,787.354" stroke="#52575D" fill="#52575D" stroke-width="1" />
  <path id="50" d="M 465.837,450.541 C 464.940,448.572 465.048,447.576 466.381,445.541 C 468.955,441.613 474,442.711 474,447.200 C 462.865,452.059 475.117,452.059 469.920,453 C 467.744,453 466.660,452.348 465.837,450.541" stroke="#737677" fill="#737677" stroke-width="1" />
  <path id="61" d="M 397,619.908 C 397,618.757 397.900,616.671 399,615.273 C 403.317,609.785 400.615,598.921 394.094,595.549 C 388.715,592.768 383.290,593.709 376,597.125 C 376,594.302 376.528,593.662 380.250,591.973 C 388.085,588.416 395.087,589.918 400.751,596.369 C 404.594,600.746 405.401,603.481 404.773,610.012 C 404.101,617.003 397,626.044 397,619.908" stroke="#53585E" fill="#53585E" stroke-width="1" />
  <path id="45" d="M 405.667,655.333 C 405.300,654.966 405,653.256 405,651.533 C 405,649.810 404.535,647.935 403.967,647.367 C 402.643,646.043 403.786,643 405.607,643 C 407.197,643 407.114,642.652 407.334,650.250 C 407.493,655.744 407.143,656.809 405.667,655.333" stroke="#727576" fill="#727576" stroke-width="1" />
  <path id="50" d="M 459.418,451.648 C 459.106,450.835 458.997,448.893 459.175,447.334 C 459.422,445.178 460.098,444.420 462,444.165 C 464.021,443.894 464.260,444.077 463.250,445.115 C 462.562,445.822 462,447.633 462,449.141 C 462,452.234 460.283,453.901 459.418,451.648" stroke="#737677" fill="#737677" stroke-width="1" />
  <path id="50" d="M 476.184,450.250 C 476.411,448.281 477.139,447.409 478.750,447.180 C 485.996,445.454 474.454,445.454 476.948,444.563 C 480.008,440.876 484,443.501 484,449.200 C 484,452.977 483.976,453 479.934,453 C 476.088,453 475.885,452.851 476.184,450.250" stroke="#737677" fill="#737677" stroke-width="1" />
  <path id="45" d="M 384.200,654.800 C 381.437,652.037 383.807,645 387.500,645 C 389.253,645 392,647.750 392,649.505 C 387.524,649.507 389.116,656.338 390.456,655.071 C 389.638,656.394 385.620,656.220 384.200,654.800" stroke="#727576" fill="#727576" stroke-width="1" />
  <path id="61" d="M 386.714,609.381 C 385.817,608.484 385.769,598.564 386.658,597.675 C 387.964,596.369 390,599.316 390,602.514 C 390,605.191 390.466,605.900 392.571,606.428 C 393.985,606.783 394.963,607.620 394.744,608.287 C 394.303,609.630 387.843,610.510 386.714,609.381" stroke="#53585E" fill="#53585E" stroke-width="1" />
  <path id="63" d="M 460.421,618.249 C 460.759,617.185 460.370,614.781 459.557,612.907 C 458.744,611.033 458.017,610.175 457.941,611 C 457.865,611.825 457.734,613.625 457.651,615 C 457.503,617.445 457.311,617.504 448.870,617.698 C 443.066,617.831 439.655,617.468 438.454,616.590 C 436.966,615.502 436.211,615.545 433.938,616.850 C 428.316,620.077 422.821,613.975 426.413,608.493 C 428.298,605.615 432.997,605.087 435.021,607.525 C 436.748,609.304 443.829,604.221 443.713,604.887 C 445.480,603.120 447,604.819 447,608.559 C 447.667,617.058 449.833,606.784 450.346,607.128 C 452.325,605.486 459.990,606.265 466.041,608.641 C 467.579,610.178 463.946,619.387 461.625,619.834 C 460.224,620.104 459.948,619.740 460.421,618.249" stroke="#D0D4D5" fill="#D0D4D5" stroke-width="1" />
  <path id="29" d="M 507,694.550 C 507,694.550 507,687 507,687 C 507,687 513.044,687 513.044,687 C 513.044,687 519.088,687 519.088,687 C 519.088,687 518.794,694.250 518.794,694.250 C 518.794,694.250 518.500,701.500 518.500,701.500 C 518.500,701.500 512.750,701.800 512.750,701.800 C 512.750,701.800 507,702.100 507,702.100 C 507,702.100 507,694.550 507,694.550" stroke="#F8F8F8" fill="#F8F8F8" stroke-width="1" />
  <path id="37" d="M 608.461,778.937 C 607.708,777.719 609.063,775.955 617.433,767.250 C 620.738,763.812 623.934,761 624.534,761 C 625.135,761 626.919,762.350 628.500,764 C 630.081,765.650 631.865,767 632.465,767 C 633.065,767 635.910,764.325 638.788,761.055 C 643.276,755.957 643.786,754.979 642.370,754.187 C 639.643,752.661 641.826,751 646.559,751 C 646.559,751 651,751 651,751 C 651,751 651,756 651,756 C 651,761.125 649.745,762.401 647.597,759.463 C 646.649,758.167 645.487,759.028 640.173,764.963 C 636.708,768.833 633.311,772 632.624,772 C 631.937,772 630.081,770.650 628.500,769 C 626.919,767.350 625.100,766 624.458,766 C 623.816,766 620.492,769.150 617.070,773 C 610.778,780.079 609.649,780.858 608.461,778.937" stroke="#535B60" fill="#535B60" stroke-width="1" />
  <path id="45" d="M 438.362,654.500 C 437.464,652.159 438.657,650.187 441.189,649.828 C 447.134,648.282 437.521,647.292 440.859,645.545 C 444.575,644.365 446,645.907 446,651.107 C 446,651.107 446,656 446,656 C 446,656 442.469,656 442.469,656 C 440.252,656 438.723,655.441 438.362,654.500M 444,652.427 C 444,651.496 443.320,650.986 442.333,651.177 C 439.824,651.664 439.480,654 441.917,654 C 443.145,654 444,653.355 444,652.427" stroke="#727576" fill="#727576" stroke-width="1" />
  <path id="45" d="M 394.667,655.333 C 393.209,653.875 394.133,652.995 396.500,653.589 C 399.775,654.411 399.726,652.652 396.432,651.151 C 392.694,649.448 393.382,645.500 397.417,645.500 C 406.083,647.125 394.954,647.751 399,649.850 C 402.149,650.948 402.817,652.783 400.800,654.800 C 399.507,656.094 395.754,656.420 394.667,655.333" stroke="#727576" fill="#727576" stroke-width="1" />
  <path id="63" d="M 327.445,352.718 C 327.174,352.013 327.077,343.131 327.227,332.981 C 327.474,316.340 327.672,314.493 329.247,314.190 C 330.862,313.880 330.987,315.272 330.907,332.579 C 330.859,342.878 330.587,351.911 330.303,352.652 C 329.648,354.358 328.088,354.394 327.445,352.718" stroke="#D0D4D5" fill="#D0D4D5" stroke-width="1" />
  <path id="50" d="M 496.667,452.333 C 495.548,451.214 495.924,445.476 502.280,441.750 C 503.375,438.684 504.300,442.209 504.118,448.750 C 504.003,452.876 503.903,453 500.667,453 C 498.834,453 497.034,452.700 496.667,452.333M 502,447.927 C 502,445.540 501.609,444.927 500.250,445.185 C 499.195,445.385 498.375,446.606 498.184,448.259 C 497.929,450.465 498.271,451 499.934,451 C 501.574,451 502,450.367 502,447.927" stroke="#737677" fill="#737677" stroke-width="1" />
  <path id="55" d="M 559.200,359.500 C 559.220,356.200 559.557,352.150 559.948,350.500 C 560.528,348.056 560.738,348.683 561.080,353.883 C 561.321,357.547 561.002,361.381 560.331,362.883 C 559.281,365.233 559.167,364.889 559.200,359.500" stroke="#7A7D7E" fill="#7A7D7E" stroke-width="1" />
  <path id="45" d="M 411.200,654.800 C 409.246,652.846 409.717,647.222 411.934,646.035 C 414.562,644.629 415.586,644.728 417.429,646.571 C 420.139,649.281 419.359,651 417.458,655.068 C 416.638,656.394 412.622,656.222 411.200,654.800" stroke="#727576" fill="#727576" stroke-width="1" />
  <path id="29" d="M 568.570,683.113 C 568.269,682.625 568.595,681.752 569.295,681.171 C 570.838,679.890 573.545,681.309 572.569,682.888 C 571.746,684.219 569.337,684.355 568.570,683.113" stroke="#F8F8F8" fill="#F8F8F8" stroke-width="1" />
  <path id="29" d="M 451.180,449.828 C 451.356,448.634 452.062,447.471 452.749,447.245 C 454.562,446.648 455.571,450.026 453.896,451.086 C 451.640,452.514 450.839,452.143 451.180,449.828" stroke="#F8F8F8" fill="#F8F8F8" stroke-width="1" />
  <path id="4" d="M 494.473,255.956 C 494.118,255.382 494.383,254.244 495.061,253.427 C 496.041,252.246 496.024,251.382 493.068,249.500 C 492.550,252.146 492.070,252.500 489,252.500 C 485.930,252.500 485.460,252.153 485.010,249.557 C 484.345,245.719 482.659,245.687 482.005,249.500 C 481.594,251.897 480.922,252.566 478.661,252.825 C 477.105,253.004 475.082,252.806 474.166,252.386 C 473.250,251.966 471.600,251.596 470.500,251.562 C 468.991,251.515 468.423,250.703 468.187,248.250 C 464.074,245.032 459.836,253.710 458.951,251.559 C 457.425,253.398 452.598,253.425 451.086,251.603 C 450.448,250.835 449.064,250.432 448.009,250.708 C 445.710,251.309 444.695,248.331 450.872,243.663 C 452.604,241.565 457.345,241.506 459.052,243.563 C 460.229,244.981 460.432,244.981 461.225,243.563 C 461.820,242.500 463.566,242 466.689,242 C 469.893,242 471.663,241.475 472.549,240.263 C 476.272,240.202 479.318,241.008 481.402,239.109 C 482.355,240.337 487.245,243 488.547,243 C 488.796,243 489,241.902 489,240.559 C 489,236.463 490.960,236.593 494.679,240.938 C 497.867,244.663 498.347,244.908 499.460,243.386 C 500.804,241.548 503,242.258 503,244.531 C 503,245.308 501.900,248.430 500.555,251.471 C 498.243,256.700 495.969,258.376 494.473,255.956" stroke="#E7E7E7" fill="#E7E7E7" stroke-width="1" />
  <path id="4" d="M 509.320,779 C 509.320,775.425 509.501,773.963 509.723,775.750 C 509.945,777.537 509.945,780.463 509.723,782.250 C 509.501,784.037 509.320,782.575 509.320,779" stroke="#E7E7E7" fill="#E7E7E7" stroke-width="1" />
  <path id="4" d="M 514.015,771.750 C 514.002,770.216 514.956,770.024 521.750,770.196 C 521.750,770.196 529.500,770.392 529.500,770.392 C 529.500,770.392 522.528,770.747 522.528,770.747 C 518.568,770.949 515.226,771.620 514.793,772.301 C 514.276,773.115 514.025,772.937 514.015,771.750" stroke="#E7E7E7" fill="#E7E7E7" stroke-width="1" />
  <path id="29" d="M 641,447.550 C 641,439.430 642.330,439.067 648.714,445.451 C 654.753,451.490 654.300,453.405 646.740,453.800 C 646.740,453.800 641,454.100 641,454.100 C 641,454.100 641,447.550 641,447.550" stroke="#F8F8F8" fill="#F8F8F8" stroke-width="1" />
  <path id="63" d="M 497.200,704.800 C 495.572,703.172 495.572,685.828 497.200,684.200 C 497.860,683.540 499.660,683 501.200,683 C 503.957,683 503.998,683.088 503.868,688.750 C 503.758,693.553 503.635,693.924 503.118,691 C 502.099,685.231 500.500,687.522 500.500,694.750 C 500.500,699.617 500.849,701.430 501.750,701.250 C 502.438,701.112 503,701.875 503,702.945 C 503,704.546 503.840,704.957 507.750,705.265 C 511.498,705.561 511.013,705.678 505.450,705.820 C 501.071,705.932 497.945,705.545 497.200,704.800" stroke="#D0D4D5" fill="#D0D4D5" stroke-width="1" />
  <path id="4" d="M 407.667,457.333 C 407.300,456.966 407,455.672 407,454.456 C 406.697,447.281 401.952,454.122 401.594,454 C 400.329,454 400,452.866 400,448.500 C 400,442.891 401.169,441.569 403.800,444.200 C 404.733,445.133 405.267,445.133 406.200,444.200 C 407.697,442.703 414.646,442.619 415.554,444.087 C 416.038,444.870 416.530,444.870 417.313,444.087 C 418.701,442.699 423.679,442.673 424.530,444.049 C 424.928,444.692 425.627,444.746 426.339,444.189 C 426.978,443.690 428.972,443.003 430.771,442.662 C 433.221,442.198 434.514,442.514 440.985,444.585 C 442.034,445.634 439.321,454.079 437.279,456.121 C 435.674,457.725 433.811,456.169 434.550,453.842 C 435.236,451.680 433.302,446 431.879,446 C 431.002,446 430.794,446.730 430.602,450.500 C 430.492,452.667 428.420,453.194 419.750,453.261 C 416.508,453.286 415,453.716 415,454.614 C 415,456.922 409.351,459.017 407.667,457.333" stroke="#E7E7E7" fill="#E7E7E7" stroke-width="1" />
  <path id="29" d="M 561.410,696.288 C 561.792,692.555 562.531,689.073 566.977,689.560 C 568.317,686.034 572.668,685.997 574,689.500 C 578.252,692.250 578.252,683.375 579.055,689.308 C 579.497,690.852 579.982,694.452 580.135,697.308 C 580.135,697.308 580.413,702.500 580.413,702.500 C 580.413,702.500 570.565,702.788 570.565,702.788 C 570.565,702.788 560.716,703.076 560.716,703.076 C 560.716,703.076 561.410,696.288 561.410,696.288" stroke="#F8F8F8" fill="#F8F8F8" stroke-width="1" />
  <path id="60" d="M 613.712,397.303 C 613.453,396.861 612.931,392.674 612.552,387.997 C 611.786,378.556 612.873,373.630 615.500,374.638 C 616.812,375.142 617.018,377.015 616.782,386.288 C 616.597,393.548 616.103,397.468 615.342,397.721 C 614.705,397.932 613.971,397.745 613.712,397.303" stroke="#D7DDE2" fill="#D7DDE2" stroke-width="1" />
  <path id="4" d="M 693,348.500 C 693,319.999 693.215,315 694.441,315 C 695.234,315 696.190,315.498 696.567,316.108 C 696.944,316.718 697.189,331.432 697.113,348.807 C 696.976,380.082 696.789,381.923 693.750,381.985 C 693.338,381.993 693,366.925 693,348.500" stroke="#E7E7E7" fill="#E7E7E7" stroke-width="1" />
  <path id="29" d="M 429.384,652.558 C 428.500,650.255 429.385,647.549 431.132,647.213 C 432.839,646.884 433.855,649.325 433.228,652.250 C 432.775,654.362 430.157,654.571 429.384,652.558" stroke="#F8F8F8" fill="#F8F8F8" stroke-width="1" />
  <path id="63" d="M 322.413,333.500 C 322.414,323.600 322.564,319.686 322.746,324.801 C 322.928,329.916 322.927,338.016 322.744,342.801 C 322.561,347.586 322.412,343.400 322.413,333.500" stroke="#D0D4D5" fill="#D0D4D5" stroke-width="1" />
  <path id="62" d="M 689.454,484.500 C 689.454,463.600 689.586,454.908 689.748,465.184 C 689.910,475.460 689.911,492.560 689.749,503.184 C 689.587,513.808 689.454,505.400 689.454,484.500" stroke="#676C70" fill="#676C70" stroke-width="1" />
  <path id="61" d="M 495,377.347 C 474.965,370.414 462.969,346.740 470.051,328.107 C 476.074,312.259 488.861,302.502 505.250,301.248 C 511.842,300.743 512,300.787 511.992,303.116 C 511.984,305.334 511.582,305.510 506.242,305.647 C 489.979,306.063 476.014,318.237 473.073,334.562 C 471.026,345.921 474.896,356.888 483.933,365.341 C 490.423,371.411 496.646,374.171 505.234,374.785 C 510.998,375.197 512,375.545 512,377.134 C 512,378.761 511.200,378.994 505.750,378.952 C 502.312,378.926 497.475,378.203 495,377.347" stroke="#53585E" fill="#53585E" stroke-width="1" />
  <path id="60" d="M 327.466,289.772 C 327.172,289.005 327.059,283.230 327.215,276.939 C 327.448,267.564 327.771,265.500 329,265.500 C 330.253,265.500 330.500,267.547 330.500,277.917 C 330.500,286.959 330.161,290.447 329.251,290.750 C 328.564,290.979 327.760,290.539 327.466,289.772" stroke="#D7DDE2" fill="#D7DDE2" stroke-width="1" />
  <path id="56" d="M 565.503,251.009 C 565.155,249.914 565.237,248.451 565.685,247.759 C 566.133,247.067 566.500,245.600 566.500,244.500 C 566.500,242.881 567.167,242.500 570,242.500 C 573.436,242.500 573.510,242.588 574.050,247.284 C 574.352,249.915 574.389,252.277 574.133,252.534 C 573.876,252.791 571.972,253 569.901,253 C 567.019,253 565.987,252.533 565.503,251.009" stroke="#727576" fill="#727576" stroke-width="1" />
  <path id="55" d="M 564.360,340 C 564.360,334.775 564.529,332.638 564.735,335.250 C 564.941,337.862 564.941,342.138 564.735,344.750 C 564.529,347.362 564.360,345.225 564.360,340" stroke="#7A7D7E" fill="#7A7D7E" stroke-width="1" />
  <path id="50" d="M 507.158,449.134 C 505.768,444.493 505.703,443 506.892,443 C 511.929,453.238 511.929,442.714 511.965,446.316 C 512.003,449.335 510.444,453 509.123,453 C 508.679,453 507.795,451.260 507.158,449.134" stroke="#737677" fill="#737677" stroke-width="1" />
  <path id="45" d="M 375.630,651.750 C 375.298,650.513 375.028,648.375 375.029,647 C 379.454,647.506 379.454,643.446 380.070,646.863 C 378.932,649.094 378,651.613 378,652.460 C 378,654.803 376.313,654.297 375.630,651.750" stroke="#727576" fill="#727576" stroke-width="1" />
  <path id="4" d="M 509.667,245.333 C 508.463,244.128 508.970,240.270 510.500,239 C 511.792,237.928 512,238.327 512,241.878 C 512,245.741 511.224,246.890 509.667,245.333" stroke="#E7E7E7" fill="#E7E7E7" stroke-width="1" />
  <path id="37" d="M 631.719,395.313 C 631.436,393.835 631.451,387.310 631.750,380.813 C 632.164,371.819 632.617,369 633.647,369 C 634.722,369 635,371.979 635,383.500 C 635,395.179 634.731,398 633.617,398 C 632.856,398 632.002,396.791 631.719,395.313" stroke="#535B60" fill="#535B60" stroke-width="1" />
  <path id="28" d="M 561.105,346.460 C 560.992,332.396 559.625,325.140 555.588,317.174 C 547.458,301.130 530.103,289.075 513,287.590 C 510.525,287.375 508.163,287.154 507.750,287.099 C 507.337,287.044 507,286.060 507,284.912 C 507,283.023 507.405,282.884 511.250,283.458 C 524.248,285.398 530.926,287.838 539.877,293.917 C 550.316,301.006 558.192,311.660 562.010,323.855 C 564.367,331.385 564.656,349.042 562.528,355.500 C 561.292,359.249 561.203,358.681 561.105,346.460" stroke="#52575D" fill="#52575D" stroke-width="1" />
</svg>
